<mxfile host="Electron" modified="2024-12-29T17:31:14.754Z" agent="Mozilla/5.0 (Windows NT 10.0; Win64; x64) AppleWebKit/537.36 (KHTML, like Gecko) draw.io/24.2.5 Chrome/120.0.6099.109 Electron/28.1.0 Safari/537.36" etag="pTDryj82ELB8z6gN9SL8" version="24.2.5" type="device">
  <diagram name="Сторінка-1" id="E8KhLPanUfxoIYZM5C6U">
    <mxGraphModel dx="1032" dy="535" grid="0" gridSize="10" guides="1" tooltips="1" connect="1" arrows="1" fold="1" page="1" pageScale="1" pageWidth="850" pageHeight="1100" math="0" shadow="0">
      <root>
        <mxCell id="0" />
        <mxCell id="1" parent="0" />
        <mxCell id="IvR1UgLZvdrGxgQHUWJN-1" value="Додаток користувача" style="swimlane;sketch=1;hachureGap=4;jiggle=2;curveFitting=1;fontFamily=Architects Daughter;fontSource=https%3A%2F%2Ffonts.googleapis.com%2Fcss%3Ffamily%3DArchitects%2BDaughter;fillStyle=auto;fillColor=#d5e8d4;strokeColor=#82b366;sketchStyle=rough;" vertex="1" parent="1">
          <mxGeometry x="160" y="109" width="250" height="165" as="geometry">
            <mxRectangle x="215" y="105" width="92" height="26" as="alternateBounds" />
          </mxGeometry>
        </mxCell>
        <UserObject label="Інтерфейс" treeRoot="1" id="IvR1UgLZvdrGxgQHUWJN-2">
          <mxCell style="whiteSpace=wrap;html=1;align=center;treeFolding=1;treeMoving=1;newEdgeStyle={&quot;edgeStyle&quot;:&quot;elbowEdgeStyle&quot;,&quot;startArrow&quot;:&quot;none&quot;,&quot;endArrow&quot;:&quot;none&quot;};sketch=1;hachureGap=4;jiggle=2;curveFitting=1;fontFamily=Architects Daughter;fontSource=https%3A%2F%2Ffonts.googleapis.com%2Fcss%3Ffamily%3DArchitects%2BDaughter;" vertex="1" parent="IvR1UgLZvdrGxgQHUWJN-1">
            <mxGeometry x="118" y="28" width="56" height="53" as="geometry" />
          </mxCell>
        </UserObject>
        <UserObject label="Зміна налаштувань" treeRoot="1" id="IvR1UgLZvdrGxgQHUWJN-3">
          <mxCell style="whiteSpace=wrap;html=1;align=center;treeFolding=1;treeMoving=1;newEdgeStyle={&quot;edgeStyle&quot;:&quot;elbowEdgeStyle&quot;,&quot;startArrow&quot;:&quot;none&quot;,&quot;endArrow&quot;:&quot;none&quot;};sketch=1;hachureGap=4;jiggle=2;curveFitting=1;fontFamily=Architects Daughter;fontSource=https%3A%2F%2Ffonts.googleapis.com%2Fcss%3Ffamily%3DArchitects%2BDaughter;" vertex="1" parent="IvR1UgLZvdrGxgQHUWJN-1">
            <mxGeometry x="8" y="28" width="94" height="52" as="geometry" />
          </mxCell>
        </UserObject>
        <UserObject label="запуск&lt;div&gt;таймера&lt;/div&gt;" treeRoot="1" id="IvR1UgLZvdrGxgQHUWJN-4">
          <mxCell style="whiteSpace=wrap;html=1;align=center;treeFolding=1;treeMoving=1;newEdgeStyle={&quot;edgeStyle&quot;:&quot;elbowEdgeStyle&quot;,&quot;startArrow&quot;:&quot;none&quot;,&quot;endArrow&quot;:&quot;none&quot;};sketch=1;hachureGap=4;jiggle=2;curveFitting=1;fontFamily=Architects Daughter;fontSource=https%3A%2F%2Ffonts.googleapis.com%2Fcss%3Ffamily%3DArchitects%2BDaughter;" vertex="1" parent="IvR1UgLZvdrGxgQHUWJN-1">
            <mxGeometry x="191" y="28" width="46" height="54" as="geometry" />
          </mxCell>
        </UserObject>
        <mxCell id="IvR1UgLZvdrGxgQHUWJN-5" value="" style="endArrow=classic;html=1;rounded=0;sketch=1;hachureGap=4;jiggle=2;curveFitting=1;fontFamily=Architects Daughter;fontSource=https%3A%2F%2Ffonts.googleapis.com%2Fcss%3Ffamily%3DArchitects%2BDaughter;entryX=1;entryY=0.25;entryDx=0;entryDy=0;exitX=0;exitY=0.25;exitDx=0;exitDy=0;sketchStyle=comic;" edge="1" parent="IvR1UgLZvdrGxgQHUWJN-1" source="IvR1UgLZvdrGxgQHUWJN-2" target="IvR1UgLZvdrGxgQHUWJN-3">
          <mxGeometry width="50" height="50" relative="1" as="geometry">
            <mxPoint x="400" y="390" as="sourcePoint" />
            <mxPoint x="450" y="340" as="targetPoint" />
          </mxGeometry>
        </mxCell>
        <mxCell id="IvR1UgLZvdrGxgQHUWJN-6" value="" style="endArrow=classic;html=1;rounded=0;sketch=1;hachureGap=4;jiggle=2;curveFitting=1;fontFamily=Architects Daughter;fontSource=https%3A%2F%2Ffonts.googleapis.com%2Fcss%3Ffamily%3DArchitects%2BDaughter;entryX=0;entryY=0.25;entryDx=0;entryDy=0;exitX=1;exitY=0.25;exitDx=0;exitDy=0;sketchStyle=comic;" edge="1" parent="IvR1UgLZvdrGxgQHUWJN-1" source="IvR1UgLZvdrGxgQHUWJN-2" target="IvR1UgLZvdrGxgQHUWJN-4">
          <mxGeometry width="50" height="50" relative="1" as="geometry">
            <mxPoint x="210" y="100" as="sourcePoint" />
            <mxPoint x="170" y="100" as="targetPoint" />
          </mxGeometry>
        </mxCell>
        <UserObject label="Запуск фонового режиму/&lt;div&gt;Вихід з фонового режиму&lt;/div&gt;" treeRoot="1" id="IvR1UgLZvdrGxgQHUWJN-79">
          <mxCell style="whiteSpace=wrap;html=1;align=center;treeFolding=1;treeMoving=1;newEdgeStyle={&quot;edgeStyle&quot;:&quot;elbowEdgeStyle&quot;,&quot;startArrow&quot;:&quot;none&quot;,&quot;endArrow&quot;:&quot;none&quot;};sketch=1;hachureGap=4;jiggle=2;curveFitting=1;fontFamily=Architects Daughter;fontSource=https%3A%2F%2Ffonts.googleapis.com%2Fcss%3Ffamily%3DArchitects%2BDaughter;" vertex="1" parent="IvR1UgLZvdrGxgQHUWJN-1">
            <mxGeometry x="74" y="105" width="147" height="54" as="geometry" />
          </mxCell>
        </UserObject>
        <mxCell id="IvR1UgLZvdrGxgQHUWJN-80" value="" style="endArrow=classic;html=1;rounded=0;sketch=1;hachureGap=4;jiggle=2;curveFitting=1;fontFamily=Architects Daughter;fontSource=https%3A%2F%2Ffonts.googleapis.com%2Fcss%3Ffamily%3DArchitects%2BDaughter;entryX=0.75;entryY=0;entryDx=0;entryDy=0;exitX=0.75;exitY=1;exitDx=0;exitDy=0;sketchStyle=comic;" edge="1" parent="IvR1UgLZvdrGxgQHUWJN-1" source="IvR1UgLZvdrGxgQHUWJN-2" target="IvR1UgLZvdrGxgQHUWJN-79">
          <mxGeometry width="50" height="50" relative="1" as="geometry">
            <mxPoint x="184" y="51" as="sourcePoint" />
            <mxPoint x="201" y="52" as="targetPoint" />
          </mxGeometry>
        </mxCell>
        <mxCell id="IvR1UgLZvdrGxgQHUWJN-81" value="" style="endArrow=classic;html=1;rounded=0;sketch=1;hachureGap=4;jiggle=2;curveFitting=1;fontFamily=Architects Daughter;fontSource=https%3A%2F%2Ffonts.googleapis.com%2Fcss%3Ffamily%3DArchitects%2BDaughter;entryX=0.25;entryY=1;entryDx=0;entryDy=0;exitX=0.25;exitY=0;exitDx=0;exitDy=0;sketchStyle=comic;" edge="1" parent="IvR1UgLZvdrGxgQHUWJN-1" source="IvR1UgLZvdrGxgQHUWJN-79" target="IvR1UgLZvdrGxgQHUWJN-2">
          <mxGeometry width="50" height="50" relative="1" as="geometry">
            <mxPoint x="194" y="61" as="sourcePoint" />
            <mxPoint x="211" y="62" as="targetPoint" />
          </mxGeometry>
        </mxCell>
        <mxCell id="IvR1UgLZvdrGxgQHUWJN-38" value="&lt;font style=&quot;font-size: 12px;&quot;&gt;Файли налаштувань&lt;/font&gt;" style="shape=cylinder3;whiteSpace=wrap;html=1;boundedLbl=1;backgroundOutline=1;size=15;sketch=1;hachureGap=4;jiggle=2;curveFitting=1;fontFamily=Architects Daughter;fontSource=https%3A%2F%2Ffonts.googleapis.com%2Fcss%3Ffamily%3DArchitects%2BDaughter;sketchStyle=comic;" vertex="1" parent="1">
          <mxGeometry x="168" y="320" width="88.5" height="80" as="geometry" />
        </mxCell>
        <mxCell id="IvR1UgLZvdrGxgQHUWJN-39" value="&lt;div&gt;&lt;font style=&quot;font-size: 24px;&quot;&gt;Структура програмного застосунку&lt;/font&gt;&lt;/div&gt;&lt;div&gt;&lt;br&gt;&lt;/div&gt;" style="text;html=1;align=center;verticalAlign=middle;whiteSpace=wrap;rounded=0;fontFamily=Architects Daughter;fontSource=https%3A%2F%2Ffonts.googleapis.com%2Fcss%3Ffamily%3DArchitects%2BDaughter;" vertex="1" parent="1">
          <mxGeometry x="210" y="63" width="474" height="52" as="geometry" />
        </mxCell>
        <mxCell id="IvR1UgLZvdrGxgQHUWJN-44" value="Запускач ефектів" style="swimlane;sketch=1;hachureGap=4;jiggle=2;curveFitting=1;fontFamily=Architects Daughter;fontSource=https%3A%2F%2Ffonts.googleapis.com%2Fcss%3Ffamily%3DArchitects%2BDaughter;fillColor=#fff2cc;strokeColor=#d6b656;" vertex="1" parent="1">
          <mxGeometry x="320" y="320" width="230" height="80" as="geometry">
            <mxRectangle x="588" y="118" width="92" height="26" as="alternateBounds" />
          </mxGeometry>
        </mxCell>
        <UserObject label="Зуппинка ефектів" treeRoot="1" id="IvR1UgLZvdrGxgQHUWJN-48">
          <mxCell style="whiteSpace=wrap;html=1;align=center;treeFolding=1;treeMoving=1;newEdgeStyle={&quot;edgeStyle&quot;:&quot;elbowEdgeStyle&quot;,&quot;startArrow&quot;:&quot;none&quot;,&quot;endArrow&quot;:&quot;none&quot;};sketch=1;hachureGap=4;jiggle=2;curveFitting=1;fontFamily=Architects Daughter;fontSource=https%3A%2F%2Ffonts.googleapis.com%2Fcss%3Ffamily%3DArchitects%2BDaughter;" vertex="1" parent="IvR1UgLZvdrGxgQHUWJN-44">
            <mxGeometry x="15" y="29" width="91" height="40" as="geometry" />
          </mxCell>
        </UserObject>
        <UserObject label="Запуск ефектів" treeRoot="1" id="IvR1UgLZvdrGxgQHUWJN-45">
          <mxCell style="whiteSpace=wrap;html=1;align=center;treeFolding=1;treeMoving=1;newEdgeStyle={&quot;edgeStyle&quot;:&quot;elbowEdgeStyle&quot;,&quot;startArrow&quot;:&quot;none&quot;,&quot;endArrow&quot;:&quot;none&quot;};sketch=1;hachureGap=4;jiggle=2;curveFitting=1;fontFamily=Architects Daughter;fontSource=https%3A%2F%2Ffonts.googleapis.com%2Fcss%3Ffamily%3DArchitects%2BDaughter;" vertex="1" parent="IvR1UgLZvdrGxgQHUWJN-44">
            <mxGeometry x="136.5" y="26" width="58" height="43" as="geometry" />
          </mxCell>
        </UserObject>
        <mxCell id="IvR1UgLZvdrGxgQHUWJN-66" value="" style="endArrow=classic;html=1;rounded=0;sketch=1;hachureGap=4;jiggle=2;curveFitting=1;fontFamily=Architects Daughter;fontSource=https%3A%2F%2Ffonts.googleapis.com%2Fcss%3Ffamily%3DArchitects%2BDaughter;entryX=0.5;entryY=0;entryDx=0;entryDy=0;exitX=0.5;exitY=1;exitDx=0;exitDy=0;sketchStyle=comic;entryPerimeter=0;" edge="1" parent="1" source="IvR1UgLZvdrGxgQHUWJN-3" target="IvR1UgLZvdrGxgQHUWJN-38">
          <mxGeometry width="50" height="50" relative="1" as="geometry">
            <mxPoint x="80" y="300" as="sourcePoint" />
            <mxPoint x="124.25" y="457" as="targetPoint" />
          </mxGeometry>
        </mxCell>
        <mxCell id="IvR1UgLZvdrGxgQHUWJN-67" value="нові налаштування" style="edgeLabel;html=1;align=center;verticalAlign=middle;resizable=0;points=[];" vertex="1" connectable="0" parent="IvR1UgLZvdrGxgQHUWJN-66">
          <mxGeometry x="0.0144" y="-2" relative="1" as="geometry">
            <mxPoint x="3" y="35" as="offset" />
          </mxGeometry>
        </mxCell>
        <mxCell id="IvR1UgLZvdrGxgQHUWJN-15" value="Таймер" style="swimlane;sketch=1;hachureGap=4;jiggle=2;curveFitting=1;fontFamily=Architects Daughter;fontSource=https%3A%2F%2Ffonts.googleapis.com%2Fcss%3Ffamily%3DArchitects%2BDaughter;fillColor=#f8cecc;strokeColor=#b85450;" vertex="1" parent="1">
          <mxGeometry x="440" y="145.5" width="305" height="92" as="geometry">
            <mxRectangle x="527" y="255" width="92" height="26" as="alternateBounds" />
          </mxGeometry>
        </mxCell>
        <UserObject label="&lt;div&gt;Запуск відліку часу&lt;/div&gt;" treeRoot="1" id="IvR1UgLZvdrGxgQHUWJN-16">
          <mxCell style="whiteSpace=wrap;html=1;align=center;treeFolding=1;treeMoving=1;newEdgeStyle={&quot;edgeStyle&quot;:&quot;elbowEdgeStyle&quot;,&quot;startArrow&quot;:&quot;none&quot;,&quot;endArrow&quot;:&quot;none&quot;};sketch=1;hachureGap=4;jiggle=2;curveFitting=1;fontFamily=Architects Daughter;fontSource=https%3A%2F%2Ffonts.googleapis.com%2Fcss%3Ffamily%3DArchitects%2BDaughter;sketchStyle=comic;" vertex="1" parent="IvR1UgLZvdrGxgQHUWJN-15">
            <mxGeometry x="104" y="28" width="98" height="52" as="geometry" />
          </mxCell>
        </UserObject>
        <UserObject label="Оновлення часу" treeRoot="1" id="IvR1UgLZvdrGxgQHUWJN-17">
          <mxCell style="whiteSpace=wrap;html=1;align=center;treeFolding=1;treeMoving=1;newEdgeStyle={&quot;edgeStyle&quot;:&quot;elbowEdgeStyle&quot;,&quot;startArrow&quot;:&quot;none&quot;,&quot;endArrow&quot;:&quot;none&quot;};sketch=1;hachureGap=4;jiggle=2;curveFitting=1;fontFamily=Architects Daughter;fontSource=https%3A%2F%2Ffonts.googleapis.com%2Fcss%3Ffamily%3DArchitects%2BDaughter;sketchStyle=comic;" vertex="1" parent="IvR1UgLZvdrGxgQHUWJN-15">
            <mxGeometry x="6.5" y="32" width="76.5" height="40" as="geometry" />
          </mxCell>
        </UserObject>
        <UserObject label="Завершення" treeRoot="1" id="IvR1UgLZvdrGxgQHUWJN-20">
          <mxCell style="whiteSpace=wrap;html=1;align=center;treeFolding=1;treeMoving=1;newEdgeStyle={&quot;edgeStyle&quot;:&quot;elbowEdgeStyle&quot;,&quot;startArrow&quot;:&quot;none&quot;,&quot;endArrow&quot;:&quot;none&quot;};sketch=1;hachureGap=4;jiggle=2;curveFitting=1;fontFamily=Architects Daughter;fontSource=https%3A%2F%2Ffonts.googleapis.com%2Fcss%3Ffamily%3DArchitects%2BDaughter;sketchStyle=comic;" vertex="1" parent="IvR1UgLZvdrGxgQHUWJN-15">
            <mxGeometry x="210" y="28" width="84" height="35" as="geometry" />
          </mxCell>
        </UserObject>
        <mxCell id="IvR1UgLZvdrGxgQHUWJN-83" value="" style="endArrow=classic;html=1;rounded=0;sketch=1;hachureGap=4;jiggle=2;curveFitting=1;fontFamily=Architects Daughter;fontSource=https%3A%2F%2Ffonts.googleapis.com%2Fcss%3Ffamily%3DArchitects%2BDaughter;entryX=1;entryY=0.5;entryDx=0;entryDy=0;exitX=0;exitY=0.5;exitDx=0;exitDy=0;sketchStyle=comic;" edge="1" parent="IvR1UgLZvdrGxgQHUWJN-15" source="IvR1UgLZvdrGxgQHUWJN-16" target="IvR1UgLZvdrGxgQHUWJN-17">
          <mxGeometry width="50" height="50" relative="1" as="geometry">
            <mxPoint x="65" y="-124" as="sourcePoint" />
            <mxPoint x="89" y="-100" as="targetPoint" />
          </mxGeometry>
        </mxCell>
        <mxCell id="IvR1UgLZvdrGxgQHUWJN-84" value="" style="endArrow=classic;html=1;rounded=0;sketch=1;hachureGap=4;jiggle=2;curveFitting=1;fontFamily=Architects Daughter;fontSource=https%3A%2F%2Ffonts.googleapis.com%2Fcss%3Ffamily%3DArchitects%2BDaughter;exitX=0.5;exitY=1;exitDx=0;exitDy=0;sketchStyle=comic;entryX=0.25;entryY=1;entryDx=0;entryDy=0;" edge="1" parent="IvR1UgLZvdrGxgQHUWJN-15" source="IvR1UgLZvdrGxgQHUWJN-17" target="IvR1UgLZvdrGxgQHUWJN-20">
          <mxGeometry width="50" height="50" relative="1" as="geometry">
            <mxPoint x="75" y="-114" as="sourcePoint" />
            <mxPoint x="220" y="154.5" as="targetPoint" />
            <Array as="points">
              <mxPoint x="80" y="110" />
              <mxPoint x="180" y="110.5" />
            </Array>
          </mxGeometry>
        </mxCell>
        <mxCell id="IvR1UgLZvdrGxgQHUWJN-90" value="" style="endArrow=classic;html=1;rounded=0;sketch=1;hachureGap=4;jiggle=2;curveFitting=1;fontFamily=Architects Daughter;fontSource=https%3A%2F%2Ffonts.googleapis.com%2Fcss%3Ffamily%3DArchitects%2BDaughter;entryX=0;entryY=0;entryDx=0;entryDy=0;sketchStyle=comic;exitX=0;exitY=1;exitDx=0;exitDy=0;" edge="1" parent="IvR1UgLZvdrGxgQHUWJN-15" source="IvR1UgLZvdrGxgQHUWJN-17" target="IvR1UgLZvdrGxgQHUWJN-17">
          <mxGeometry width="50" height="50" relative="1" as="geometry">
            <mxPoint x="20" y="154.5" as="sourcePoint" />
            <mxPoint x="-136" y="88.5" as="targetPoint" />
            <Array as="points">
              <mxPoint x="-20" y="64.5" />
              <mxPoint x="-30" y="34.5" />
            </Array>
          </mxGeometry>
        </mxCell>
        <mxCell id="IvR1UgLZvdrGxgQHUWJN-89" value="" style="endArrow=classic;html=1;rounded=0;sketch=1;hachureGap=4;jiggle=2;curveFitting=1;fontFamily=Architects Daughter;fontSource=https%3A%2F%2Ffonts.googleapis.com%2Fcss%3Ffamily%3DArchitects%2BDaughter;entryX=0;entryY=0;entryDx=0;entryDy=0;exitX=1;exitY=0.5;exitDx=0;exitDy=0;sketchStyle=comic;" edge="1" parent="1" source="IvR1UgLZvdrGxgQHUWJN-4" target="IvR1UgLZvdrGxgQHUWJN-16">
          <mxGeometry width="50" height="50" relative="1" as="geometry">
            <mxPoint x="330" y="200" as="sourcePoint" />
            <mxPoint x="354" y="224" as="targetPoint" />
          </mxGeometry>
        </mxCell>
        <mxCell id="IvR1UgLZvdrGxgQHUWJN-91" value="&lt;font style=&quot;font-size: 12px;&quot;&gt;Список ефектів&lt;/font&gt;" style="shape=cylinder3;whiteSpace=wrap;html=1;boundedLbl=1;backgroundOutline=1;size=15;sketch=1;hachureGap=4;jiggle=2;curveFitting=1;fontFamily=Architects Daughter;fontSource=https%3A%2F%2Ffonts.googleapis.com%2Fcss%3Ffamily%3DArchitects%2BDaughter;sketchStyle=comic;" vertex="1" parent="1">
          <mxGeometry x="650" y="310" width="88.5" height="80" as="geometry" />
        </mxCell>
        <mxCell id="IvR1UgLZvdrGxgQHUWJN-92" value="" style="endArrow=classic;html=1;rounded=0;sketch=1;hachureGap=4;jiggle=2;curveFitting=1;fontFamily=Architects Daughter;fontSource=https%3A%2F%2Ffonts.googleapis.com%2Fcss%3Ffamily%3DArchitects%2BDaughter;exitX=0.75;exitY=1;exitDx=0;exitDy=0;sketchStyle=comic;entryX=0.5;entryY=1;entryDx=0;entryDy=0;" edge="1" parent="1" source="IvR1UgLZvdrGxgQHUWJN-20" target="IvR1UgLZvdrGxgQHUWJN-48">
          <mxGeometry width="50" height="50" relative="1" as="geometry">
            <mxPoint x="330" y="200" as="sourcePoint" />
            <mxPoint x="440" y="350" as="targetPoint" />
            <Array as="points">
              <mxPoint x="560" y="440" />
            </Array>
          </mxGeometry>
        </mxCell>
        <mxCell id="IvR1UgLZvdrGxgQHUWJN-93" value="" style="endArrow=classic;html=1;rounded=0;sketch=1;hachureGap=4;jiggle=2;curveFitting=1;fontFamily=Architects Daughter;fontSource=https%3A%2F%2Ffonts.googleapis.com%2Fcss%3Ffamily%3DArchitects%2BDaughter;sketchStyle=comic;exitX=0.5;exitY=1;exitDx=0;exitDy=0;entryX=0.75;entryY=0;entryDx=0;entryDy=0;" edge="1" parent="1" source="IvR1UgLZvdrGxgQHUWJN-16" target="IvR1UgLZvdrGxgQHUWJN-45">
          <mxGeometry width="50" height="50" relative="1" as="geometry">
            <mxPoint x="490" y="270" as="sourcePoint" />
            <mxPoint x="580" y="380" as="targetPoint" />
          </mxGeometry>
        </mxCell>
        <mxCell id="IvR1UgLZvdrGxgQHUWJN-96" value="" style="endArrow=classic;html=1;rounded=0;sketch=1;hachureGap=4;jiggle=2;curveFitting=1;fontFamily=Architects Daughter;fontSource=https%3A%2F%2Ffonts.googleapis.com%2Fcss%3Ffamily%3DArchitects%2BDaughter;sketchStyle=comic;entryX=1;entryY=0.5;entryDx=0;entryDy=0;exitX=0;exitY=0.5;exitDx=0;exitDy=0;exitPerimeter=0;" edge="1" parent="1" source="IvR1UgLZvdrGxgQHUWJN-91" target="IvR1UgLZvdrGxgQHUWJN-45">
          <mxGeometry width="50" height="50" relative="1" as="geometry">
            <mxPoint x="510" y="290" as="sourcePoint" />
            <mxPoint x="500" y="350" as="targetPoint" />
          </mxGeometry>
        </mxCell>
        <mxCell id="IvR1UgLZvdrGxgQHUWJN-97" value="" style="endArrow=classic;html=1;rounded=0;sketch=1;hachureGap=4;jiggle=2;curveFitting=1;fontFamily=Architects Daughter;fontSource=https%3A%2F%2Ffonts.googleapis.com%2Fcss%3Ffamily%3DArchitects%2BDaughter;sketchStyle=comic;exitX=0.5;exitY=1;exitDx=0;exitDy=0;exitPerimeter=0;entryX=0.5;entryY=1;entryDx=0;entryDy=0;" edge="1" parent="1" source="IvR1UgLZvdrGxgQHUWJN-38" target="IvR1UgLZvdrGxgQHUWJN-45">
          <mxGeometry width="50" height="50" relative="1" as="geometry">
            <mxPoint x="520" y="300" as="sourcePoint" />
            <mxPoint x="480" y="480" as="targetPoint" />
            <Array as="points">
              <mxPoint x="340" y="440" />
            </Array>
          </mxGeometry>
        </mxCell>
        <mxCell id="IvR1UgLZvdrGxgQHUWJN-99" value="" style="endArrow=classic;html=1;rounded=0;sketch=1;hachureGap=4;jiggle=2;curveFitting=1;fontFamily=Architects Daughter;fontSource=https%3A%2F%2Ffonts.googleapis.com%2Fcss%3Ffamily%3DArchitects%2BDaughter;sketchStyle=comic;exitX=0.5;exitY=0;exitDx=0;exitDy=0;entryX=1;entryY=0.25;entryDx=0;entryDy=0;" edge="1" parent="1" source="IvR1UgLZvdrGxgQHUWJN-20" target="IvR1UgLZvdrGxgQHUWJN-4">
          <mxGeometry width="50" height="50" relative="1" as="geometry">
            <mxPoint x="540" y="320" as="sourcePoint" />
            <mxPoint x="420" y="150" as="targetPoint" />
            <Array as="points">
              <mxPoint x="550" y="120" />
            </Array>
          </mxGeometry>
        </mxCell>
      </root>
    </mxGraphModel>
  </diagram>
</mxfile>
